<svg viewBox="0 0 1177 298" fill="currentColor" xmlns="http://www.w3.org/2000/svg">
<path d="M185.88 0C187.95 0 189.63 1.68 189.63 3.75V90.04C189.63 93.13 193.16 94.89 195.63 93.04L312.47 5.54999C313.81 4.53999 315.66 4.55001 316.99 5.57001L328.53 14.38C330.51 15.89 330.49 18.87 328.5 20.36L226.25 96.88C223.36 99.04 224.89 103.63 228.5 103.63H353.76C355.83 103.63 357.51 105.31 357.51 107.38V122.35C357.51 124.42 355.83 126.1 353.76 126.1H205.11C196.82 126.1 190.1 132.82 190.1 141.11V223.86C190.1 225.93 188.42 227.61 186.35 227.61H171.63C169.56 227.61 167.88 225.93 167.88 223.86V139.17C167.88 136.07 164.34 134.31 161.87 136.17L42.44 226.21C41.1 227.22 39.24 227.22 37.91 226.2L26.37 217.39C24.4 215.88 24.41 212.91 26.39 211.41L131.34 132.28C134.21 130.11 132.68 125.53 129.08 125.53H3.75C1.68 125.53 0 123.85 0 121.78V106.81C0 104.74 1.68 103.06 3.75 103.06H152.4C160.69 103.06 167.41 96.34 167.41 88.06V3.75C167.41 1.68 169.09 0 171.16 0H185.88Z" />
<path d="M1076.97 294.613C1074.98 294.613 1073.54 292.708 1074.09 290.792L1109.82 165.179C1110.19 163.89 1111.37 163 1112.71 163H1136.73C1138.07 163 1139.24 163.89 1139.61 165.179L1175.35 290.792C1175.89 292.708 1174.46 294.613 1172.46 294.613H1155.2C1153.84 294.613 1152.65 293.699 1152.3 292.386L1127.62 199.822C1126.83 196.853 1122.61 196.853 1121.82 199.822L1097.14 292.386C1096.79 293.699 1095.6 294.613 1094.24 294.613H1076.97ZM1100.04 263.471C1098.03 263.471 1096.58 261.521 1097.17 259.592L1101.64 245.016C1102.02 243.755 1103.19 242.895 1104.51 242.895H1144.93C1146.25 242.895 1147.41 243.755 1147.8 245.016L1152.26 259.592C1152.85 261.521 1151.41 263.471 1149.39 263.471H1100.04Z" />
<path d="M993 294.613C991.343 294.613 990 293.27 990 291.613V166C990 164.343 991.343 163 993 163H1031.71C1040.73 163 1048.7 164.73 1055.62 168.19C1062.54 171.651 1067.92 176.47 1071.75 182.649C1075.58 188.828 1077.49 196.181 1077.49 204.708C1077.49 213.112 1075.58 220.403 1071.75 226.582C1067.92 232.761 1062.54 237.581 1055.62 241.041C1048.7 244.378 1040.73 246.046 1031.71 246.046H1015.99C1014.33 246.046 1012.99 247.389 1012.99 249.046V291.613C1012.99 293.27 1011.64 294.613 1009.99 294.613H993ZM1012.99 222.099C1012.99 223.756 1014.33 225.099 1015.99 225.099H1029.3C1037.58 225.099 1043.7 223.369 1047.65 219.909C1051.73 216.325 1053.77 211.258 1053.77 204.708C1053.77 197.911 1051.73 192.783 1047.65 189.323C1043.7 185.862 1037.58 184.132 1029.3 184.132H1015.99C1014.33 184.132 1012.99 185.475 1012.99 187.132V222.099Z" />
<path d="M914.703 294.613C913.047 294.613 911.703 293.27 911.703 291.613V187.132C911.703 185.475 910.36 184.132 908.703 184.132H878C876.343 184.132 875 182.789 875 181.132V166C875 164.343 876.343 163 878 163H968.393C970.049 163 971.393 164.343 971.393 166V181.132C971.393 182.789 970.049 184.132 968.393 184.132H937.689C936.032 184.132 934.689 185.475 934.689 187.132V291.613C934.689 293.27 933.346 294.613 931.689 294.613H914.703Z" />
<path d="M842.785 294.579C841.87 294.579 841.005 294.161 840.435 293.445L789.062 228.772H813.716L862.63 289.701C864.207 291.664 862.809 294.579 860.291 294.579H842.785ZM772.969 294.579C771.312 294.579 769.969 293.236 769.969 291.579V165.966C769.969 164.309 771.312 162.966 772.969 162.966H787.359C789.016 162.966 790.359 164.309 790.359 165.966V291.579C790.359 293.236 789.016 294.579 787.359 294.579H772.969ZM789.062 228.772L838.767 164.137C839.335 163.399 840.214 162.966 841.145 162.966H858.574C861.068 162.966 862.473 165.832 860.946 167.803L813.716 228.772H789.062Z" />
<path d="M672.309 294.579C670.652 294.579 669.309 293.236 669.309 291.579V165.966C669.309 164.309 670.652 162.966 672.309 162.966H747.872C749.528 162.966 750.872 164.309 750.872 165.966V181.098C750.872 182.755 749.528 184.098 747.872 184.098H695.295C693.638 184.098 692.295 185.441 692.295 187.098V215.392C692.295 217.048 693.638 218.392 695.295 218.392H745.647C747.304 218.392 748.647 219.735 748.647 221.392V235.782C748.647 237.439 747.304 238.782 745.647 238.782H695.295C693.638 238.782 692.295 240.125 692.295 241.782V270.447C692.295 272.103 693.638 273.447 695.295 273.447H749.354C751.011 273.447 752.354 274.79 752.354 276.447V291.579C752.354 293.236 751.011 294.579 749.354 294.579H672.309Z" />
<path d="M560.152 294.579C558.495 294.579 557.152 293.236 557.152 291.579V165.966C557.152 164.309 558.495 162.966 560.152 162.966H643.501C645.158 162.966 646.501 164.309 646.501 165.966V291.579C646.501 293.236 645.158 294.579 643.501 294.579H629.11C627.453 294.579 626.11 293.236 626.11 291.579V185.059C626.11 183.402 624.767 182.059 623.11 182.059H580.543C578.886 182.059 577.543 183.402 577.543 185.059V291.579C577.543 293.236 576.2 294.579 574.543 294.579H560.152Z" />
<path d="M496.417 297.545C485.666 297.545 476.583 294.764 469.168 289.203C461.753 283.642 456.068 275.733 452.114 265.476C448.283 255.219 446.367 243.046 446.367 228.958C446.367 214.746 448.283 202.512 452.114 192.254C456.068 181.997 461.753 174.088 469.168 168.527C476.583 162.842 485.666 160 496.417 160C508.775 160 519.094 164.078 527.374 172.234C535.035 179.781 540.157 190.237 542.74 203.602C543.078 205.355 541.758 206.972 539.975 207.057L522.4 207.887C520.897 207.958 519.582 206.901 519.259 205.432C517.58 197.801 514.847 191.925 511.061 187.806C506.983 183.11 502.102 180.761 496.417 180.761C490.609 180.761 485.727 182.677 481.773 186.508C477.942 190.215 475.038 195.653 473.061 202.821C471.083 209.988 470.095 218.701 470.095 228.958C470.095 239.091 471.083 247.742 473.061 254.91C475.038 262.077 477.942 267.515 481.773 271.222C485.727 274.93 490.609 276.783 496.417 276.783C502.349 276.783 507.478 274.312 511.803 269.369C515.724 264.775 518.478 258.301 520.063 249.949C520.347 248.45 521.667 247.355 523.191 247.415L540.735 248.106C542.512 248.175 543.843 249.77 543.533 251.521C541.058 265.52 535.919 276.536 528.116 284.569C519.836 293.22 509.27 297.545 496.417 297.545Z" />
<path d="M336.555 294.579C334.898 294.579 333.555 293.236 333.555 291.579V165.966C333.555 164.309 334.898 162.966 336.555 162.966H353.541C355.197 162.966 356.541 164.309 356.541 165.966V220.343C356.541 222.487 354.024 223.642 352.398 222.244C350.635 220.727 351.707 217.835 354.033 217.835H405.02C407.346 217.835 408.418 220.727 406.655 222.244C405.029 223.642 402.512 222.487 402.512 220.343V165.966C402.512 164.309 403.856 162.966 405.512 162.966H422.498C424.155 162.966 425.498 164.309 425.498 165.966V291.579C425.498 293.236 424.155 294.579 422.498 294.579H405.512C403.856 294.579 402.512 293.236 402.512 291.579V236.46C402.512 234.316 405.029 233.161 406.655 234.559C408.418 236.076 407.346 238.968 405.02 238.968H354.033C351.707 238.968 350.635 236.076 352.398 234.559C354.024 233.161 356.541 234.316 356.541 236.46V291.579C356.541 293.236 355.197 294.579 353.541 294.579H336.555Z" />
<path d="M311.753 291.579C311.753 293.236 310.41 294.579 308.753 294.579H292.509C290.852 294.579 289.509 293.236 289.509 291.579V214.879C289.509 211.607 285.016 210.698 283.744 213.714L250.428 292.744C249.959 293.856 248.87 294.579 247.663 294.579H228C226.343 294.579 225 293.236 225 291.579V165.966C225 164.309 226.343 162.966 228 162.966H244.244C245.901 162.966 247.244 164.309 247.244 165.966V242.666C247.244 245.938 251.738 246.846 253.009 243.831L286.326 164.8C286.794 163.689 287.884 162.966 289.09 162.966H308.753C310.41 162.966 311.753 164.309 311.753 165.966V291.579Z" />
</svg>
